<svg version="1.1" viewBox="0.0 0.0 3840.0 960.0" fill="none" stroke="none" stroke-linecap="square" stroke-miterlimit="10" xmlns:xlink="http://www.w3.org/1999/xlink" xmlns="http://www.w3.org/2000/svg"><clipPath id="p.0"><path d="m0 0l3840.0 0l0 960.0l-3840.0 0l0 -960.0z" clip-rule="nonzero"/></clipPath><g clip-path="url(#p.0)"><path fill="#000000" fill-opacity="0.0" d="m0 0l3840.0 0l0 960.0l-3840.0 0z" fill-rule="evenodd"/><g filter="url(#shadowFilter-p.1)"><use xlink:href="#p.1" transform=""/></g><defs><filter id="shadowFilter-p.1" filterUnits="userSpaceOnUse"><feGaussianBlur in="SourceAlpha" stdDeviation="25.0" result="blur"/><feComponentTransfer in="blur" color-interpolation-filters="sRGB"><feFuncR type="linear" slope="0" intercept="0.9019608"/><feFuncG type="linear" slope="0" intercept="0.5686275"/><feFuncB type="linear" slope="0" intercept="0.21960784"/><feFuncA type="linear" slope="0.55" intercept="0"/></feComponentTransfer></filter></defs><g id="p.1"><defs><radialGradient id="p.2" gradientUnits="userSpaceOnUse" gradientTransform="matrix(24.991755530338178 0.0 0.0 24.991755530338178 0.0 0.0)" spreadMethod="pad" cx="19.208290706595204" cy="19.208253502171285" fx="19.208290706595204" fy="19.208253502171285" r="24.991756439208984"><stop offset="0.0" stop-color="#cc0000"/><stop offset="0.5" stop-color="#e69138"/><stop offset="1.0" stop-color="#fcea00"/></radialGradient></defs><path fill="url(#p.2)" d="m161.01282 173.41483l146.07812 141.02615l193.53497 0l-145.70737 -141.02615zm318.85074 -127.748856l0 198.44135l136.80917 132.05501l0 -198.0825l-136.80917 -132.41385zm-311.80637 304.30066l-136.8092 132.055l205.02844 0l136.80922 -132.055zm628.43256 -178.70488l-145.7074 141.02614l0 187.676l145.7074 -141.38498l0 -187.31715zm-72.668335 310.7599l-136.8092 132.41385l205.02844 0l136.8092 -132.41385zm-414.50592 -19.73648l-146.07814 138.87305l0 187.31714l146.07814 -141.02612l0 -185.16406zm173.14334 191.98212l145.70737 141.02618l193.53497 0l-145.70734 -141.02618zm-139.03375 -70.692444l0 198.44135l136.43848 132.41382l0 -198.44135l-136.43848 -132.41382z" fill-rule="evenodd"/></g><g filter="url(#shadowFilter-p.3)"><use xlink:href="#p.3" transform="matrix(1.0 0.0 0.0 1.0 29.0 0.0)"/></g><defs><filter id="shadowFilter-p.3" filterUnits="userSpaceOnUse"><feGaussianBlur in="SourceAlpha" stdDeviation="6.5" result="blur"/><feComponentTransfer in="blur" color-interpolation-filters="sRGB"><feFuncR type="linear" slope="0" intercept="0.0"/><feFuncG type="linear" slope="0" intercept="0.0"/><feFuncB type="linear" slope="0" intercept="0.0"/><feFuncA type="linear" slope="0.15" intercept="0"/></feComponentTransfer></filter></defs><g id="p.3"><defs><linearGradient id="p.4" gradientUnits="userSpaceOnUse" gradientTransform="matrix(52.56859036452648 0.0 0.0 52.56859036452648 0.0 0.0)" spreadMethod="pad" x1="19.108193822258716" y1="13.259704291499542" x2="71.6767841867852" y2="13.259704291499542"><stop offset="0.0" stop-color="#e69138"/><stop offset="0.8" stop-color="#f1c232"/><stop offset="1.0" stop-color="#f1c232"/></linearGradient></defs><path fill="url(#p.4)" d="m1227.4116 325.8706l0 185.58667l-131.14868 0l-39.37671 52.942566l0 -238.52924zm-177.03479 -62.006104c-12.663086 0 -23.476562 6.0423584 -32.44037 18.127075c-8.963745 12.084717 -13.445679 26.71106 -13.445679 43.87903l0 371.17334l52.395447 0l0 -123.72443l170.52539 0l0 123.72443l52.395386 0l0 -433.17944z" fill-rule="evenodd"/><defs><linearGradient id="p.5" gradientUnits="userSpaceOnUse" gradientTransform="matrix(52.56859036452648 0.0 0.0 52.56859036452648 0.0 0.0)" spreadMethod="pad" x1="19.108193822258716" y1="13.259704291499542" x2="71.6767841867852" y2="13.259704291499542"><stop offset="0.0" stop-color="#e69138"/><stop offset="0.8" stop-color="#f1c232"/><stop offset="1.0" stop-color="#f1c232"/></linearGradient></defs><path fill="url(#p.5)" d="m1430.6332 263.8645c-12.663086 0 -23.476562 6.0423584 -32.440308 18.127075c-8.963867 12.084717 -13.445679 26.71106 -13.445679 43.87903l0 123.72446c0 17.072021 4.4818115 31.650421 13.445679 43.735138c8.963745 12.084717 19.777222 18.127075 32.440308 18.127075l131.14868 0l0 123.72449l-177.03467 0l0 61.862183l183.54407 0c12.734375 0 23.547852 -6.0423584 32.44043 -18.127075c8.963745 -12.084717 13.445679 -26.663086 13.445679 -43.735107l0 -123.72449c0 -17.072021 -4.4819336 -31.650421 -13.445679 -43.735138c-8.8927 -12.084717 -19.706177 -18.127075 -32.44043 -18.127075l-131.04199 0l0 -123.72446l176.9281 0l0 -62.006104z" fill-rule="evenodd"/><defs><linearGradient id="p.6" gradientUnits="userSpaceOnUse" gradientTransform="matrix(52.56859036452648 0.0 0.0 52.56859036452648 0.0 0.0)" spreadMethod="pad" x1="19.108193822258716" y1="13.259704291499542" x2="71.6767841867852" y2="13.259704291499542"><stop offset="0.0" stop-color="#e69138"/><stop offset="0.8" stop-color="#f1c232"/><stop offset="1.0" stop-color="#f1c232"/></linearGradient></defs><path fill="url(#p.6)" d="m1663.431 263.8645l0 62.006104l95.0802 0l0 371.17334l52.395386 0l0 -371.17334l95.0802 0l0 -62.006104z" fill-rule="evenodd"/><defs><linearGradient id="p.7" gradientUnits="userSpaceOnUse" gradientTransform="matrix(52.56859036452648 0.0 0.0 52.56859036452648 0.0 0.0)" spreadMethod="pad" x1="19.108193822258716" y1="13.259704291499542" x2="71.6767841867852" y2="13.259704291499542"><stop offset="0.0" stop-color="#e69138"/><stop offset="0.8" stop-color="#f1c232"/><stop offset="1.0" stop-color="#f1c232"/></linearGradient></defs><path fill="url(#p.7)" d="m1968.2764 263.8645l0 62.006104l45.88611 0l-45.88611 60.855164l0 310.31818l52.395508 0l0 -371.17334l170.52539 0l0 185.58667l-144.27429 0l136.37756 185.58667l66.9082 0l-91.77197 -122.86127l0 -9.782837l39.269775 0c30.59082 0 45.885986 -23.54596 45.885986 -70.63803l0 -167.8912c0 -16.592499 -4.588623 -31.074982 -13.765625 -43.44742c-9.177246 -12.372467 -19.884033 -18.558685 -32.12036 -18.558685z" fill-rule="evenodd"/><defs><linearGradient id="p.8" gradientUnits="userSpaceOnUse" gradientTransform="matrix(52.56859036452648 0.0 0.0 52.56859036452648 0.0 0.0)" spreadMethod="pad" x1="19.108193822258716" y1="13.259704291499542" x2="71.6767841867852" y2="13.259704291499542"><stop offset="0.0" stop-color="#e69138"/><stop offset="0.8" stop-color="#f1c232"/><stop offset="1.0" stop-color="#f1c232"/></linearGradient></defs><path fill="url(#p.8)" d="m2564.8801 325.8706l0 309.31116l-170.4187 0l0 -309.31116zm-177.03467 -62.006104c-12.663086 0 -23.476562 6.0423584 -32.44043 18.127075c-8.963867 12.084717 -13.445557 26.71106 -13.445557 43.87903l0 309.31116c0 17.072021 4.4816895 31.65039 13.445557 43.735107c8.963867 12.084717 19.777344 18.127075 32.44043 18.127075l183.65088 0c12.663086 0 23.476562 -6.0423584 32.440186 -18.127075c8.963867 -12.084717 13.445801 -26.663086 13.445801 -43.735107l0 -309.31116c0 -17.167969 -4.4819336 -31.794312 -13.445801 -43.87903c-8.963623 -12.084717 -19.7771 -18.127075 -32.440186 -18.127075z" fill-rule="evenodd"/><defs><linearGradient id="p.9" gradientUnits="userSpaceOnUse" gradientTransform="matrix(52.56859036452648 0.0 0.0 52.56859036452648 0.0 0.0)" spreadMethod="pad" x1="19.108193822258716" y1="13.259704291499542" x2="71.6767841867852" y2="13.259704291499542"><stop offset="0.0" stop-color="#e69138"/><stop offset="0.8" stop-color="#f1c232"/><stop offset="1.0" stop-color="#f1c232"/></linearGradient></defs><path fill="url(#p.9)" d="m2774.671 263.8645c-12.236328 0 -22.943115 6.1862183 -32.12036 18.558685c-9.177002 12.372437 -13.765625 26.85492 -13.765625 43.44742l0 309.31116c0 16.496521 4.588623 30.931091 13.765625 43.303528c9.177246 12.372437 19.884033 18.558655 32.12036 18.558655l137.7649 0l39.269775 -53.086426l0 53.086426l52.502197 0l0 -247.44888l-91.77197 0l-45.99292 61.862213l85.262695 0l0 123.72449l-170.41846 0l0 -309.31116l222.92065 0l0 -62.006104z" fill-rule="evenodd"/><defs><linearGradient id="p.10" gradientUnits="userSpaceOnUse" gradientTransform="matrix(52.56859036452648 0.0 0.0 52.56859036452648 0.0 0.0)" spreadMethod="pad" x1="19.108193822258716" y1="13.259704291499542" x2="71.6767841867852" y2="13.259704291499542"><stop offset="0.0" stop-color="#e69138"/><stop offset="0.8" stop-color="#f1c232"/><stop offset="1.0" stop-color="#f1c232"/></linearGradient></defs><path fill="url(#p.10)" d="m3325.4185 325.8706l0 309.31116l-170.4187 0l0 -309.31116zm-177.03467 -62.006104c-12.663086 0 -23.476562 6.0423584 -32.44043 18.127075c-8.963867 12.084717 -13.445557 26.71106 -13.445557 43.87903l0 309.31116c0 17.072021 4.4816895 31.65039 13.445557 43.735107c8.963867 12.084717 19.777344 18.127075 32.44043 18.127075l183.65088 0c12.663086 0 23.476562 -6.0423584 32.440186 -18.127075c8.963867 -12.084717 13.445801 -26.663086 13.445801 -43.735107l0 -309.31116c0 -17.167969 -4.4819336 -31.794312 -13.445801 -43.87903c-8.963623 -12.084717 -19.7771 -18.127075 -32.440186 -18.127075z" fill-rule="evenodd"/><defs><linearGradient id="p.11" gradientUnits="userSpaceOnUse" gradientTransform="matrix(52.56859036452648 0.0 0.0 52.56859036452648 0.0 0.0)" spreadMethod="pad" x1="19.108193822258716" y1="13.259704291499542" x2="71.6767841867852" y2="13.259704291499542"><stop offset="0.0" stop-color="#e69138"/><stop offset="0.8" stop-color="#f1c232"/><stop offset="1.0" stop-color="#f1c232"/></linearGradient></defs><path fill="url(#p.11)" d="m3492.631 263.0013l0 433.17947l52.395508 0l0 -322.69064l-19.63501 -44.16678l26.25122 0l124.53247 366.85742l91.77197 0l0 -433.17947l-52.395264 0l0 322.69064l19.634766 44.166748l-26.250977 0l-123.892334 -366.8574z" fill-rule="evenodd"/></g></g></svg>