<svg version="1.1" viewBox="0.0 0.0 960.0 960.0" fill="none" stroke="none" stroke-linecap="square" stroke-miterlimit="10" xmlns:xlink="http://www.w3.org/1999/xlink" xmlns="http://www.w3.org/2000/svg"><clipPath id="p.0"><path d="m0 0l960.0 0l0 960.0l-960.0 0l0 -960.0z" clip-rule="nonzero"/></clipPath><g clip-path="url(#p.0)"><path fill="#000000" fill-opacity="0.0" d="m0 0l960.0 0l0 960.0l-960.0 0z" fill-rule="evenodd"/><defs><radialGradient id="p.1" gradientUnits="userSpaceOnUse" gradientTransform="matrix(24.991755530338178 0.0 0.0 24.991755530338178 0.0 0.0)" spreadMethod="pad" cx="19.208290706595204" cy="19.208253502171285" fx="19.208290706595204" fy="19.208253502171285" r="24.991756439208984"><stop offset="0.0" stop-color="#cc0000"/><stop offset="0.5" stop-color="#e69138"/><stop offset="1.0" stop-color="#fcea00"/></radialGradient></defs><path fill="url(#p.1)" d="m161.01282 173.41483l146.07812 141.02615l193.53497 0l-145.70737 -141.02615zm318.85074 -127.748856l0 198.44135l136.80917 132.05501l0 -198.0825l-136.80917 -132.41385zm-311.80637 304.30066l-136.8092 132.055l205.02844 0l136.80922 -132.055zm628.43256 -178.70488l-145.7074 141.02614l0 187.676l145.7074 -141.38498l0 -187.31715zm-72.668335 310.7599l-136.8092 132.41385l205.02844 0l136.8092 -132.41385zm-414.50592 -19.73648l-146.07814 138.87305l0 187.31714l146.07814 -141.02612l0 -185.16406zm173.14334 191.98212l145.70737 141.02618l193.53497 0l-145.70734 -141.02618zm-139.03375 -70.692444l0 198.44135l136.43848 132.41382l0 -198.44135l-136.43848 -132.41382z" fill-rule="evenodd"/></g></svg>